<?xml  version="1.0" encoding="UTF-8"?>
<!DOCTYPE svg PUBLIC "-//W3C//DTD SVG 1.0//EN" "http://www.w3.org/TR/2001/REC-SVG-20010904/DTD/svg10.dtd" >
<svg xmlns="http://www.w3.org/2000/svg" >
<metadata>
<version>1.0</version>
<id><![CDATA[Proxima N W01 X Cd Thin]]></id>
<vendor>Monotype Imaging Inc.</vendor>
<credits>
<name>Fonts.com WebFonts</name>
<URL>http://webfonts.fonts.com</URL>
<role>Home of the Web fonts</role>
</credits>
<license>
<URL>http://webfonts.fonts.com/Legal</URL>
</license>
<copyright><![CDATA[Copyright (c) Mark Simonson, 2005. All rights reserved.]]></copyright>
<trademark><![CDATA[Proxima Nova is a trademark of Mark Simonson.]]></trademark>
<licensee>
<name></name>
</licensee>
</metadata>
<defs >
<font horiz-adv-x="317" id="cbac01b4-d85a-4034-a575-e4059ddf49ce">
<font-face font-family="" panose-1="2 0 5 6 3 0 0 2 0 4" ascent="741" descent="-259" units-per-em="1000" alphabetic="0">
</font-face>
<missing-glyph horiz-adv-x="0" />

<glyph unicode="&#xA;" />
<glyph unicode="&#xD;" horiz-adv-x="0" />
<glyph unicode=" " horiz-adv-x="180" />
<glyph unicode="!" horiz-adv-x="208" d="M94 161L83 667H125L114 161H94ZM104 -9Q90 -9 81 0T71 24Q71 37 80 46T104 56Q118 56 127 47T137 24Q137 10 128 1T104 -9Z"  />
<glyph unicode="&quot;" horiz-adv-x="290" d="M77 443Q73 498 69 543Q67 562 66 580T64 614T63 639T62 651Q62 662 69 669T88 677Q99 677 106 670T114 651Q114 649 114 639T112 614T109 581T106 543Q102 498 99 443H77ZM191 443Q187 498 183 543Q181 562 180 580T178 614T177 639T176 651Q176 662 183 669T202 677Q213 677 220 670T228 651Q228 649 228 639T226 614T223 581T220 543Q216 498 213 443H191Z"  />
<glyph unicode="#" horiz-adv-x="395" d="M158 0L204 191H126L82 0H49L94 191H18L24 220H101L154 447H77L82 476H160L204 667H237L193 476H270L314 667H346L302 476H377L372 447H295L242 220H320L314 191H235L191 0H158ZM263 447H186L133 220H209L263 447Z"  />
<glyph unicode="$" horiz-adv-x="304" d="M145 -12Q110 -12 80 3T27 45L51 71Q67 47 93 33T145 18H150V335Q130 354 112 374T78 417T54 469T45 532Q45 593 76 630T150 676V768H182V677Q233 674 267 637L248 612Q219 644 182 647V352Q200 332 218 312T249 266T271 212T280 147Q280 90 254 48T182 -7V-100H150V-12H145ZM77 532Q77 484 98 450T150 384V645Q120 637 99 608T77 532ZM248 147Q248 199 229 235T182 302V26Q211 39 229 70T248 147Z"  />
<glyph unicode="%" horiz-adv-x="555" d="M149 351Q123 351 102 363T67 397T44 448T36 513Q36 548 44 578T66 630T102 664T149 677Q175 677 196 665T231 630T254 578T262 513Q262 478 254 449T232 397T196 363T149 351ZM127 0L396 667H429L159 0H127ZM406 -12Q380 -12 359 0T324 34T301 85T293 150Q293 185 301 215T323 267T359 301T406 314Q432 314 453 302T488 267T511 215T519 150Q519 115 511 86T489 34T453 0T406 -12ZM149 378Q168 378 183 389T208 418T224 461T229 513Q229 541 224 565T209 609T183 639T149 650Q130 650 115 639T90 609T75 566T69 513Q69 486 74 462T90 419T115 389T149 378ZM406 15Q425 15 440 26T465 55T481 98T486 150Q486 178 481 202T466 246T440 276T406 287Q386 287 372 276T347 246T331 203T326 150Q326 123 331 99T346 56T371 26T406 15Z"  />
<glyph unicode="&amp;" horiz-adv-x="358" d="M306 0L260 81Q240 39 214 14T154 -12Q106 -12 77 32T47 153Q47 191 54 221T72 276T99 322T130 363Q114 407 105 446T96 517Q96 590 117 633T180 677Q210 677 232 645T254 559Q254 523 246 495T226 444T197 401T164 360Q175 328 187 300T210 248Q236 190 256 153Q270 195 279 237T294 313L324 302Q315 251 303 204T275 116Q289 91 305 65T345 0H306ZM153 18Q181 18 203 45T242 115Q225 146 211 174T187 225Q174 251 163 277T141 330Q117 297 100 256T82 153Q82 82 103 50T153 18ZM131 517Q131 489 137 457T154 391Q168 408 180 426T203 464T218 507T224 559Q224 607 211 627T180 647Q155 647 143 617T131 517Z"  />
<glyph unicode="&apos;" horiz-adv-x="176" d="M77 443Q73 498 69 543Q67 562 66 580T64 614T63 639T62 651Q62 662 69 669T88 677Q99 677 106 670T114 651Q114 649 114 639T112 614T109 581T106 543Q102 498 99 443H77Z"  />
<glyph unicode="(" horiz-adv-x="167" d="M132 -199Q90 -96 69 13T47 243Q47 364 68 473T132 685L150 679Q135 630 123 581T101 480T87 369T82 243Q82 175 87 117T101 7T122 -94T150 -192L132 -199Z"  />
<glyph unicode=")" horiz-adv-x="167" d="M17 -192Q32 -143 44 -95T66 6T80 117T85 243Q85 311 80 369T66 479T45 581T17 679L35 685Q77 582 98 473T120 243Q120 122 99 13T35 -199L17 -192Z"  />
<glyph unicode="*" horiz-adv-x="288" d="M129 409L135 528L35 463L20 489L126 543L20 597L35 623L135 558L129 677H159L153 558L253 623L268 597L162 543L268 489L253 463L153 528L159 409H129Z"  />
<glyph unicode="+" horiz-adv-x="374" d="M203 322V160H171V322H29V352H171V508H203V352H345V322H203Z"  />
<glyph unicode="&#x2c;" horiz-adv-x="208" d="M141 3Q141 -35 122 -68T79 -118L57 -100Q81 -82 95 -57T110 -8Q108 -9 107 -9H103Q89 -9 80 0T71 24Q71 37 80 46T103 56Q119 56 130 43T141 3Z"  />
<glyph unicode="-" horiz-adv-x="230" d="M30 227V257H200V227H30Z"  />
<glyph unicode="." horiz-adv-x="208" d="M104 -9Q90 -9 81 0T71 24Q71 37 80 46T104 56Q118 56 127 47T137 24Q137 10 128 1T104 -9Z"  />
<glyph unicode="/" horiz-adv-x="177" d="M0 -20L147 687H177L30 -20H0Z"  />
<glyph unicode="0" horiz-adv-x="377" d="M189 -12Q144 -12 118 21T77 106T58 217T53 333Q53 388 57 448T76 560T117 644T189 677Q234 677 260 644T301 560T319 449T324 333Q324 278 320 218T302 106T261 22T189 -12ZM189 18Q224 18 244 49T274 128T286 231T289 333Q289 380 287 435T274 537T244 615T189 647Q154 647 134 616T103 537T91 435T88 333Q88 286 90 231T102 129T132 50T189 18Z"  />
<glyph unicode="1" horiz-adv-x="243" d="M139 0V621L34 506L12 529L141 667H171V0H139Z"  />
<glyph unicode="2" horiz-adv-x="348" d="M60 0V28Q105 115 137 179T191 292T227 374T248 435T257 484T260 529Q260 581 237 614T177 647Q143 647 121 624T82 555L51 569Q74 621 101 649T177 677Q233 677 264 635T295 529Q295 497 289 462T261 372T200 237T94 30H295V0H60Z"  />
<glyph unicode="3" horiz-adv-x="347" d="M164 -12Q140 -12 120 -3T84 22T56 59T36 103L67 116Q82 74 104 46T164 18Q217 18 238 61T259 178Q259 224 250 253T226 300T194 323T162 330Q154 330 144 330T128 329V361Q134 360 144 360T162 360Q201 360 226 395T252 499Q252 577 230 612T165 647Q146 647 132 640T108 621T89 592T74 557L43 570Q60 621 93 649T165 677Q192 677 214 667T253 636T279 582T288 503Q288 451 267 406T204 345Q222 340 238 326T266 290T286 239T294 177Q294 137 287 103T265 43T225 3T164 -12Z"  />
<glyph unicode="4" horiz-adv-x="310" d="M211 0V195H12V228L201 667H243V225H298V195H243V0H211ZM211 616L43 225H211V616Z"  />
<glyph unicode="5" horiz-adv-x="348" d="M174 -12Q145 -12 125 -4T91 20T66 57T47 103L79 114Q92 67 113 43T174 18Q196 18 213 33T242 74T259 132T265 198Q265 293 243 336T182 380Q155 380 135 366T90 311L63 327V667H277V637H95V353Q110 379 132 394T182 410Q236 410 268 357T300 198Q300 158 292 120T267 53T227 6T174 -12Z"  />
<glyph unicode="6" horiz-adv-x="350" d="M184 -12Q141 -12 115 18T76 98T58 209T53 333Q53 393 57 454T77 565T120 646T195 677Q233 677 262 652T305 581L277 566Q265 604 247 625T195 647Q159 647 138 615T105 535T91 430T88 323V304Q94 323 103 341T124 374T152 397T188 406Q239 406 273 355T307 196Q307 160 301 123T281 56T243 7T184 -12ZM184 18Q209 18 226 33T253 73T268 130T272 196Q272 248 266 282T248 338T221 367T187 376Q167 376 152 364T124 333T104 291T89 246Q89 219 92 180T104 105T132 44T184 18Z"  />
<glyph unicode="7" horiz-adv-x="278" d="M79 0L220 637H24V667H254V645L112 0H79Z"  />
<glyph unicode="8" horiz-adv-x="348" d="M174 -12Q112 -12 80 33T48 154Q48 188 58 218T83 273T115 316T148 344Q135 353 119 369T89 407T65 456T55 516Q55 595 88 636T174 677Q227 677 260 636T293 516Q293 484 284 457T260 407T230 369T201 344Q215 334 232 316T265 274T290 219T300 155Q300 78 268 33T174 -12ZM174 359Q178 361 192 371T220 401T246 449T258 516Q258 576 238 611T174 647Q131 647 111 612T90 516Q90 478 101 450T127 402T155 372T174 359ZM174 18Q214 18 239 53T265 155Q265 195 253 227T226 281T195 316T174 330Q168 329 153 317T123 281T95 226T83 154Q83 88 108 53T174 18Z"  />
<glyph unicode="9" horiz-adv-x="350" d="M155 -11Q117 -11 88 14T45 85L73 100Q85 62 103 41T155 19Q191 19 212 51T245 131T259 236T262 343V362Q256 342 247 324T226 292T197 269T162 260Q111 260 77 311T43 470Q43 506 49 543T69 610T107 659T166 678Q209 678 235 648T274 568T292 457T297 333Q297 273 292 212T272 101T229 20T155 -11ZM163 290Q183 290 198 302T226 333T246 375T261 420Q261 447 258 486T246 561T218 622T166 648Q140 648 124 633T97 593T82 536T78 470Q78 418 84 384T102 328T129 299T163 290Z"  />
<glyph unicode=":" horiz-adv-x="208" d="M104 425Q90 425 81 434T71 457Q71 471 80 480T104 490Q118 490 127 481T137 457Q137 444 128 435T104 425ZM104 -9Q90 -9 81 0T71 24Q71 37 80 46T104 56Q118 56 127 47T137 24Q137 10 128 1T104 -9Z"  />
<glyph unicode=";" horiz-adv-x="208" d="M104 425Q90 425 81 434T71 457Q71 471 80 480T104 490Q118 490 127 481T137 457Q137 444 128 435T104 425ZM141 3Q141 -35 122 -68T79 -118L57 -100Q81 -82 95 -57T110 -8Q108 -9 107 -9H103Q89 -9 80 0T71 24Q71 37 80 46T103 56Q119 56 130 43T141 3Z"  />
<glyph unicode="&lt;" horiz-adv-x="374" d="M29 324V345L345 503V467L70 334L345 202V166L29 324Z"  />
<glyph unicode="=" horiz-adv-x="374" d="M29 418V448H345V418H29ZM29 220V250H345V220H29Z"  />
<glyph unicode="&gt;" horiz-adv-x="374" d="M29 166V202L304 334L29 467V503L345 345V324L29 166Z"  />
<glyph unicode="?" horiz-adv-x="302" d="M148 169Q120 204 120 249Q120 281 128 305T150 351T179 391T207 431T229 479T238 539Q238 558 232 577T213 612T184 638T145 648Q120 648 103 640T67 612L48 637Q68 659 94 668T145 678Q171 678 194 667T234 637T260 593T270 539Q270 485 252 449T211 383T171 323T152 249Q152 231 159 215T175 189L148 169ZM155 -9Q141 -9 132 0T122 24Q122 37 131 46T155 56Q169 56 178 47T188 24Q188 10 179 1T155 -9Z"  />
<glyph unicode="@" horiz-adv-x="569" d="M256 -70Q208 -70 168 -50T98 7T52 97T35 216Q35 296 60 372T129 507T228 603T348 639Q433 639 483 575T534 392Q534 324 522 268T490 171T448 108T402 85Q370 85 354 106T337 157V163Q328 149 318 135T295 110T267 92T234 85Q218 85 203 91T175 111T154 147T146 204Q146 255 158 307T194 402T249 472T323 500Q352 500 370 477T394 422L406 482H436L373 183Q372 179 371 172T370 161Q369 131 376 122T400 112Q412 112 430 129T464 182T493 270T505 392Q505 446 493 487T460 555T410 595T348 609Q292 609 241 575T152 486T91 360T68 216Q68 154 83 107T124 26T185 -24T260 -41Q299 -41 330 -26T388 16L402 -7Q370 -37 333 -53T256 -70ZM234 112Q253 112 269 120T298 143T323 173T346 207L386 390Q383 405 379 420T367 446T348 465T323 473Q288 473 262 446T217 379T189 291T179 204Q179 159 192 136T234 112Z"  />
<glyph unicode="A" horiz-adv-x="312" d="M267 0L235 179H77L45 0H12L137 667H175L300 0H267ZM156 620L82 209H230L156 620Z"  />
<glyph unicode="B" horiz-adv-x="360" d="M72 0V667H168Q227 667 262 624T298 497Q298 434 278 397T220 344Q240 341 256 326T283 288T301 237T307 180Q307 94 274 47T172 0H72ZM168 358Q195 358 213 369T243 398T258 442T263 497Q263 525 259 550T243 595T214 626T168 637H104V358H168ZM172 30Q227 30 249 70T272 179Q272 207 267 234T250 282T219 315T172 328H104V30H172Z"  />
<glyph unicode="C" horiz-adv-x="357" d="M198 -12Q157 -12 130 15T85 89T61 199T53 333Q53 404 60 467T85 577T129 651T198 678Q222 678 240 670T272 647T295 614T311 575L281 563Q267 602 250 625T198 648Q168 648 148 624T114 556T94 456T88 333Q88 267 94 210T113 110T147 43T198 18Q236 18 254 48T284 123L314 111Q308 85 299 63T275 24T242 -2T198 -12Z"  />
<glyph unicode="D" horiz-adv-x="386" d="M72 0V667H165Q210 667 242 642T294 573T323 467T333 333Q333 259 324 198T294 93T242 25T165 0H72ZM165 30Q202 30 227 53T269 118T291 214T298 333Q298 396 292 451T269 547T228 613T165 637H104V30H165Z"  />
<glyph unicode="E" horiz-adv-x="330" d="M72 0V667H282V637H104V358H275V328H104V30H282V0H72Z"  />
<glyph unicode="F" horiz-adv-x="330" d="M72 0V667H282V637H104V358H275V328H104V0H72Z"  />
<glyph unicode="G" horiz-adv-x="375" d="M198 -12Q160 -12 133 13T88 84T62 193T53 333Q53 410 61 473T87 582T132 653T198 678Q222 678 240 670T272 647T295 614T311 575L281 563Q267 602 250 625T198 648Q167 648 146 623T112 555T94 455T88 333Q88 269 93 212T112 111T146 43T198 18Q226 18 246 31T279 69V290H178V320H311V61Q291 23 261 6T198 -12Z"  />
<glyph unicode="H" horiz-adv-x="395" d="M291 0V328H104V0H72V667H104V358H291V667H323V0H291Z"  />
<glyph unicode="I" horiz-adv-x="176" d="M72 0V667H104V0H72Z"  />
<glyph unicode="J" horiz-adv-x="298" d="M109 -12Q78 -12 54 0T6 42L30 65Q47 39 67 29T109 18Q151 18 172 41T194 121V667H226V121Q226 51 195 20T109 -12Z"  />
<glyph unicode="K" horiz-adv-x="372" d="M315 0L151 319L104 231V0H72V667H104V287L302 667H341L167 348L354 0H315Z"  />
<glyph unicode="L" horiz-adv-x="306" d="M72 0V667H104V30H282V0H72Z"  />
<glyph unicode="M" horiz-adv-x="508" d="M404 0V609L263 0H245L104 609V0H72V667H124L254 110L385 667H436V0H404Z"  />
<glyph unicode="N" horiz-adv-x="395" d="M291 0L104 575V0H72V667H104L291 98V667H323V0H291Z"  />
<glyph unicode="O" horiz-adv-x="396" d="M198 -12Q157 -12 129 16T84 91T60 201T53 333Q53 402 60 465T84 575T129 650T198 678Q239 678 267 650T312 575T336 465T343 333Q343 264 336 201T312 91T267 16T198 -12ZM198 18Q229 18 250 44T284 113T302 214T308 333Q308 396 303 453T284 553T250 622T198 648Q167 648 146 623T112 554T94 453T88 333Q88 271 93 214T112 114T146 44T198 18Z"  />
<glyph unicode="P" horiz-adv-x="341" d="M72 0V667H172Q207 667 232 652T274 611T299 551T307 478Q307 440 299 406T275 345T233 304T172 289H104V0H72ZM171 319Q223 319 247 364T272 478Q272 547 248 592T171 637H104V319H171Z"  />
<glyph unicode="Q" horiz-adv-x="396" d="M198 -12Q157 -12 129 16T84 91T60 201T53 333Q53 402 60 465T84 575T129 650T198 678Q239 678 267 650T312 575T336 465T343 333Q343 285 340 241T330 157T310 86T281 32L302 -23L273 -35L257 7Q230 -12 198 -12ZM198 18Q225 18 245 38L184 200L214 212L267 70Q289 114 298 183T308 333Q308 396 303 453T284 553T250 622T198 648Q167 648 146 623T112 554T94 453T88 333Q88 271 93 214T112 114T146 44T198 18Z"  />
<glyph unicode="R" horiz-adv-x="366" d="M277 0L178 289H104V0H72V667H172Q232 667 269 619T307 478Q307 432 298 400T275 345T243 311T209 294L313 0H277ZM171 319Q223 319 247 364T272 478Q272 547 248 592T171 637H104V319H171Z"  />
<glyph unicode="S" horiz-adv-x="319" d="M145 -12Q110 -12 80 3T27 45L51 71Q67 47 93 33T145 18Q166 18 184 27T217 53T240 93T248 147Q248 192 233 225T196 286T147 338T98 391T60 452T45 532Q45 566 55 593T83 639T123 668T170 678Q229 678 267 637L248 612Q216 648 170 648Q134 648 106 617T77 532Q77 494 92 464T129 408T178 356T227 300T265 233T280 147Q280 113 271 84T243 34T200 0T145 -12Z"  />
<glyph unicode="T" horiz-adv-x="287" d="M127 0V637H18V667H269V637H159V0H127Z"  />
<glyph unicode="U" horiz-adv-x="396" d="M198 -12Q138 -12 105 27T72 154V667H104V154Q104 78 130 48T198 18Q240 18 266 48T292 154V667H324V154Q324 66 291 27T198 -12Z"  />
<glyph unicode="V" horiz-adv-x="312" d="M137 0L12 667H45L156 47L267 667H300L175 0H137Z"  />
<glyph unicode="W" horiz-adv-x="490" d="M328 0L245 587L162 0H124L24 667H59L143 63L228 667H262L347 63L431 667H466L366 0H328Z"  />
<glyph unicode="X" horiz-adv-x="308" d="M264 0L154 302L44 0H8L136 338L15 667H52L154 376L256 667H293L172 339L300 0H264Z"  />
<glyph unicode="Y" horiz-adv-x="322" d="M145 0V289L2 667H38L161 328L286 667H320L177 289V0H145Z"  />
<glyph unicode="Z" horiz-adv-x="309" d="M36 0V31L233 637H36V667H266V637L68 30H273V0H36Z"  />
<glyph unicode="[" horiz-adv-x="162" d="M34 -190V678H145V648H64V-160H145V-190H34Z"  />
<glyph unicode="\" horiz-adv-x="177" d="M1 687H31L178 -20H148L1 687Z"  />
<glyph unicode="]" horiz-adv-x="162" d="M17 -190V-160H98V648H17V678H128V-190H17Z"  />
<glyph unicode="^" horiz-adv-x="324" d="M273 333L162 636L51 333H19L149 667H175L305 333H273Z"  />
<glyph unicode="_" horiz-adv-x="279" d="M-3 -70V-40H282V-70H-3Z"  />
<glyph unicode="`" horiz-adv-x="119" d="M95 556L0 700H41L119 556H95Z"  />
<glyph unicode="a" horiz-adv-x="342" d="M247 0V53Q230 16 206 2T159 -12Q103 -12 72 33T41 149Q41 219 72 264T159 310Q182 310 206 297T247 247V348Q247 407 231 437T170 468Q145 468 123 457T77 414L59 437Q88 468 114 481T170 495Q231 495 254 459T277 349V0H247ZM159 15Q185 15 209 30T247 88V208Q233 250 209 266T159 283Q137 283 121 272T95 242T79 199T74 149Q74 123 79 99T94 56T121 26T159 15Z"  />
<glyph unicode="b" horiz-adv-x="351" d="M95 115Q99 96 108 78T129 46T155 24T183 15Q209 15 226 34T253 84T267 156T271 241Q271 284 267 325T253 398T226 449T183 468Q169 468 155 459T129 436T108 404T95 366V115ZM65 0V667H95V411Q110 454 134 474T183 495Q216 495 239 475T276 421T297 340T304 241Q304 188 298 142T277 61T239 8T183 -12Q159 -12 135 10T95 70V0H65Z"  />
<glyph unicode="c" horiz-adv-x="294" d="M183 -12Q148 -12 122 8T80 62T55 143T47 242Q47 294 55 340T79 420T122 475T183 495Q213 495 231 483T267 450L246 429Q230 450 215 459T182 468Q152 468 133 449T102 397T85 325T80 242Q80 200 85 160T101 87T132 35T182 15Q199 15 214 23T246 54L267 33Q250 10 232 -1T183 -12Z"  />
<glyph unicode="d" horiz-adv-x="351" d="M256 0V70Q241 32 217 10T168 -12Q135 -12 112 7T75 61T54 141T47 241Q47 294 53 340T74 420T112 475T168 495Q192 495 216 475T256 411V667H286V0H256ZM168 15Q182 15 196 23T222 46T242 78T256 115V366Q251 385 243 403T222 436T196 459T168 468Q142 468 125 449T98 398T84 325T80 241Q80 197 84 157T98 85T125 34T168 15Z"  />
<glyph unicode="e" horiz-adv-x="346" d="M193 -12Q154 -12 126 7T81 61T55 142T47 242Q47 294 54 340T76 421T116 475T176 495Q213 495 237 475T277 419T298 338T305 242V232H80Q80 183 87 143T108 75T144 31T193 15Q215 15 236 32T272 83L300 69Q282 33 256 11T193 -12ZM272 259Q272 294 268 331T253 398T223 448T176 468Q147 468 129 447T99 395T84 327T80 259H272Z"  />
<glyph unicode="f" horiz-adv-x="202" d="M78 0V456H28V483H78V590Q78 628 99 652T157 677Q172 677 187 671T213 650L193 627Q184 640 176 645T157 650Q131 650 120 634T108 590V483H178V456H108V0H78Z"  />
<glyph unicode="g" horiz-adv-x="351" d="M164 -196Q135 -196 107 -186T54 -149L74 -123Q90 -143 114 -156T164 -169Q207 -169 231 -139T256 -43V70Q241 32 217 9T168 -14Q135 -14 112 5T75 59T54 140T47 240Q47 293 53 339T74 420T112 475T168 495Q192 495 216 475T256 411V483H286V-43Q286 -124 253 -160T164 -196ZM168 13Q182 13 196 22T222 45T242 77T256 115V366Q251 385 243 403T222 436T196 459T168 468Q142 468 125 449T98 398T84 325T80 240Q80 196 84 156T98 83T125 32T168 13Z"  />
<glyph unicode="h" horiz-adv-x="342" d="M247 0V394Q247 468 194 468Q178 468 163 460T135 439T112 409T95 374V0H65V667H95V411Q112 446 139 470T198 495Q240 495 258 472T277 394V0H247Z"  />
<glyph unicode="i" horiz-adv-x="160" d="M80 566Q69 566 60 574T51 595Q51 607 60 615T80 624Q92 624 100 616T109 595Q109 583 101 575T80 566ZM65 0V483H95V0H65Z"  />
<glyph unicode="j" horiz-adv-x="160" d="M80 566Q69 566 60 574T51 595Q51 607 60 615T80 624Q92 624 100 616T109 595Q109 583 101 575T80 566ZM31 -196Q-10 -196 -26 -158L1 -144Q11 -169 31 -169Q46 -169 55 -155T65 -96V483H95V-96Q95 -156 77 -176T31 -196Z"  />
<glyph unicode="k" horiz-adv-x="325" d="M269 0L161 242L95 132V0H65V667H95V178L274 483H305L177 265L301 0H269Z"  />
<glyph unicode="l" horiz-adv-x="160" d="M65 0V667H95V0H65Z"  />
<glyph unicode="m" horiz-adv-x="524" d="M429 0V394Q429 468 376 468Q344 468 318 439T277 374V0H247V394Q247 468 194 468Q178 468 163 460T135 439T112 409T95 374V0H65V483H95V411Q112 446 139 470T198 495Q236 495 256 473T276 411Q293 446 320 470T380 495Q418 495 438 472T459 394V0H429Z"  />
<glyph unicode="n" horiz-adv-x="342" d="M247 0V394Q247 468 194 468Q178 468 163 460T135 439T112 409T95 374V0H65V483H95V411Q112 446 139 470T198 495Q240 495 258 471T277 394V0H247Z"  />
<glyph unicode="o" horiz-adv-x="352" d="M176 -12Q140 -12 115 9T75 65T54 146T47 242Q47 291 53 337T75 418T115 474T176 495Q213 495 237 474T277 418T298 337T305 242Q305 192 299 147T277 66T238 9T176 -12ZM176 15Q205 15 224 35T253 88T268 160T272 242Q272 282 268 322T254 395T224 447T176 468Q147 468 129 448T99 395T84 323T80 242Q80 201 84 161T99 88T128 36T176 15Z"  />
<glyph unicode="p" horiz-adv-x="351" d="M183 -12Q159 -12 135 8T95 72V-184H65V483H95V413Q110 451 134 473T183 495Q216 495 239 476T276 422T297 342T304 242Q304 189 298 143T277 63T239 8T183 -12ZM183 15Q209 15 226 34T253 85T267 157T271 242Q271 285 267 326T253 398T226 449T183 468Q169 468 155 460T129 437T108 405T95 368V117Q99 98 108 80T129 47T155 24T183 15Z"  />
<glyph unicode="q" horiz-adv-x="351" d="M168 15Q182 15 196 24T222 47T242 79T256 117V368Q251 387 243 405T222 437T196 459T168 468Q142 468 125 449T98 399T84 326T80 242Q80 198 84 158T98 85T125 34T168 15ZM168 -12Q135 -12 112 8T75 62T54 143T47 242Q47 295 53 341T74 422T112 475T168 495Q192 495 216 473T256 413V483H286V-184H256V72Q241 29 217 9T168 -12Z"  />
<glyph unicode="r" horiz-adv-x="227" d="M65 0V483H95V398Q114 441 139 466T210 492V456Q206 457 202 457T195 457Q177 457 162 449T134 427T112 396T95 361V0H65Z"  />
<glyph unicode="s" horiz-adv-x="278" d="M137 -12Q103 -12 77 1T28 47L50 68Q67 42 87 29T137 15Q168 15 192 39T216 105Q216 138 203 162T171 205T129 242T87 280T55 327T42 390Q42 437 73 466T147 495Q204 495 240 444L220 424Q204 449 186 458T147 468Q112 468 92 445T72 390Q72 358 85 336T117 294T159 258T201 219T233 170T246 105Q246 78 237 57T213 20T178 -4T137 -12Z"  />
<glyph unicode="t" horiz-adv-x="212" d="M142 -12Q78 -12 78 76V456H26V483H78V615H108V483H178V456H108V76Q108 45 115 30T142 15Q163 15 178 36L199 18Q188 4 175 -4T142 -12Z"  />
<glyph unicode="u" horiz-adv-x="342" d="M247 0V70Q230 35 205 12T144 -12Q102 -12 84 11T65 89V483H95V89Q95 15 148 15Q164 15 179 22T207 43T230 72T247 107V483H277V0H247Z"  />
<glyph unicode="v" horiz-adv-x="279" d="M121 0L16 483H49L139 35L230 483H263L156 0H121Z"  />
<glyph unicode="w" horiz-adv-x="484" d="M334 0L242 440L150 0H120L20 483H53L135 47L224 483H260L349 47L431 483H464L364 0H334Z"  />
<glyph unicode="x" horiz-adv-x="286" d="M233 0L143 217L53 0H20L126 245L26 483H59L143 274L227 483H260L160 245L266 0H233Z"  />
<glyph unicode="y" horiz-adv-x="279" d="M34 -162Q39 -166 46 -167T58 -169Q77 -169 85 -157T102 -115L125 -18L16 483H49L139 40L230 483H263L126 -123Q116 -165 100 -180T58 -196Q39 -196 27 -189L34 -162Z"  />
<glyph unicode="z" horiz-adv-x="275" d="M41 0V27L199 456H41V483H230V456L74 27H234V0H41Z"  />
<glyph unicode="{" horiz-adv-x="187" d="M138 -190Q123 -190 109 -184T84 -165T66 -136T59 -97V157Q59 185 46 207T7 229V259Q33 259 46 281T59 331V585Q59 607 66 624T84 653T109 671T138 678H170V648H138Q118 648 104 631T89 585V331Q89 299 79 277T44 244Q69 233 79 211T89 157V-97Q89 -125 103 -142T138 -160H170V-190H138Z"  />
<glyph unicode="|" horiz-adv-x="174" d="M72 -20V687H102V-20H72Z"  />
<glyph unicode="}" horiz-adv-x="187" d="M17 -160H49Q69 -160 83 -143T98 -97V157Q98 189 108 211T143 244Q118 255 108 277T98 331V585Q98 614 84 631T49 648H17V678H49Q64 678 78 672T103 653T121 624T128 585V331Q128 303 141 281T180 259V229Q154 229 141 207T128 157V-97Q128 -119 121 -136T103 -165T78 -183T49 -190H17V-160Z"  />
<glyph unicode="~" horiz-adv-x="376" d="M348 664Q345 627 341 587T326 512T297 456T250 433Q227 433 213 448T191 485T177 534T166 582T151 620T126 635Q92 635 80 583T58 431L28 436Q31 473 35 513T50 587T79 643T126 665Q149 665 163 650T185 613T199 564T210 515T225 477T250 462Q284 462 296 513T318 667L348 664Z"  />
<glyph unicode="&#xA0;" horiz-adv-x="180" />
<glyph unicode="&#xA1;" horiz-adv-x="208" d="M94 322H114L125 -184H83L94 322ZM71 459Q71 473 80 482T104 492Q118 492 127 483T137 459Q137 446 128 437T104 427Q90 427 81 436T71 459Z"  />
<glyph unicode="&#xA2;" horiz-adv-x="294" d="M165 -10Q134 -5 112 16T76 72T54 149T47 242Q47 291 54 334T75 411T112 466T165 493V565H195V494Q219 492 235 480T267 450L246 429Q221 461 195 467V16Q208 18 220 27T246 54L267 33Q251 12 235 2T195 -11V-100H165V-10ZM80 242Q80 203 84 166T97 97T123 44T165 17V466Q140 460 124 439T98 386T84 318T80 242Z"  />
<glyph unicode="&#xA3;" horiz-adv-x="342" d="M30 297H115Q105 316 94 336T74 379T58 430T51 495Q51 529 59 562T82 620T122 661T180 677Q225 677 253 650T295 579L270 563Q258 596 238 621T180 647Q162 647 145 637T115 607T93 559T84 493Q84 457 91 430T108 381T129 338T151 297H229V267H162Q167 253 169 237T172 202Q172 180 167 158T151 114T128 75T99 43Q118 54 138 54Q154 54 167 49T192 36T215 24T239 18Q259 18 277 30T303 56L324 32Q313 14 288 1T238 -12Q216 -12 203 -6T180 7T160 21T135 28Q106 28 63 -7L44 22Q89 52 114 102T140 203Q140 221 137 237T128 267H30V297Z"  />
<glyph unicode="&#xA4;" horiz-adv-x="348" d="M174 98Q145 98 123 110T86 145L17 75L-5 97L71 173Q57 205 51 246T45 333Q45 378 51 420T72 494L-5 571L17 593L87 521Q102 543 123 555T174 567Q203 567 224 555T260 521L331 593L353 571L276 495Q290 463 296 421T303 333Q303 286 297 244T275 169L353 92L331 70L259 142Q244 122 224 110T174 98ZM174 133Q203 133 222 151T251 197T266 261T270 333Q270 368 266 403T252 467T222 514T174 532Q145 532 127 514T97 468T82 404T78 333Q78 297 82 262T97 198T126 151T174 133Z"  />
<glyph unicode="&#xA5;" horiz-adv-x="322" d="M145 0V129H19V159H145V289H19V319H133L2 667H38L161 328L286 667H320L188 319H302V289H177V159H302V129H177V0H145Z"  />
<glyph unicode="&#xA6;" horiz-adv-x="174" d="M72 -20V296H102V-20H72ZM72 371V687H102V371H72Z"  />
<glyph unicode="&#xA7;" horiz-adv-x="278" d="M246 287Q246 253 229 223T173 176Q211 143 228 111T246 36Q246 12 238 -9T216 -46T182 -71T137 -81Q100 -81 76 -67T28 -22L50 -1Q61 -17 82 -35T137 -54Q153 -54 167 -47T193 -27T210 2T216 36Q216 70 203 93T171 136T129 173T87 210T55 257T42 321Q42 336 47 353T62 385T89 411T130 425Q78 465 60 499T42 572Q42 596 50 615T73 648T106 669T142 677Q199 677 240 626L218 606Q198 633 182 641T142 650Q112 650 92 628T72 572Q72 541 85 518T117 476T159 440T201 401T233 352T246 287ZM216 287Q216 312 209 331T192 364T171 388T153 405Q128 401 112 392T87 371T75 346T72 321Q72 286 90 257T152 194Q187 211 201 235T216 287Z"  />
<glyph unicode="&#xA8;" horiz-adv-x="252" d="M215 598Q215 587 207 579T187 570Q176 570 168 578T159 598Q159 609 167 617T187 626Q198 626 206 618T215 598ZM93 598Q93 587 85 579T65 570Q54 570 46 578T37 598Q37 609 45 617T65 626Q76 626 84 618T93 598Z"  />
<glyph unicode="&#xA9;" horiz-adv-x="778" d="M734 334Q734 263 707 200T633 90T523 16T389 -11Q318 -11 255 16T145 90T71 200T44 334Q44 405 71 468T145 578T255 652T389 679Q460 679 523 652T633 578T707 468T734 334ZM708 334Q708 400 683 458T615 559T513 628T389 653Q323 653 265 628T164 560T95 458T70 334Q70 268 95 210T163 109T265 40T389 15Q455 15 513 40T614 108T683 210T708 334ZM533 184Q506 152 472 136T390 119Q346 119 308 135T242 181T198 250T181 334Q181 380 197 420T242 488T308 533T390 550Q437 550 472 534T533 486L513 466Q493 492 459 507T390 523Q355 523 323 510T265 472T225 412T210 334Q210 293 225 259T265 199T322 160T390 146Q426 146 459 162T513 204L533 184Z"  />
<glyph unicode="&#xAA;" horiz-adv-x="261" d="M181 326V360Q168 337 151 328T116 318Q77 318 55 347T33 423Q33 469 55 498T116 527Q133 527 150 518T181 486V549Q181 588 167 604T126 621Q112 621 96 615T60 584L45 607Q83 648 129 648Q176 648 192 620T209 535V326H181ZM120 340Q138 340 154 350T181 386V459Q171 485 155 495T120 505Q91 505 77 480T62 423Q62 390 76 365T120 340Z"  />
<glyph unicode="&#xAB;" horiz-adv-x="273" d="M210 63L120 243L210 420H243L153 243L243 63H210ZM120 63L30 243L120 420H153L63 243L153 63H120Z"  />
<glyph unicode="&#xAC;" horiz-adv-x="374" d="M345 220H313V418H29V448H345V220Z"  />
<glyph unicode="&#xAD;" horiz-adv-x="230" d="M30 227V257H200V227H30Z"  />
<glyph unicode="&#xAE;" horiz-adv-x="494" d="M459 465Q459 421 443 383T398 315T330 270T247 253Q203 253 165 269T97 315T52 382T35 465Q35 509 51 548T97 615T164 660T247 677Q291 677 330 661T397 616T442 548T459 465ZM433 465Q433 504 419 538T379 597T320 636T247 651Q208 651 175 637T116 597T76 538T61 465Q61 427 75 393T115 334T174 294T247 279Q286 279 319 293T378 333T418 393T433 465ZM306 343L243 439H196V343H167V586H266Q297 586 318 566T340 512Q340 492 333 478T315 456T294 444T278 440L343 343H306ZM310 512Q310 532 296 545T266 559H196V467H266Q282 467 296 480T310 512Z"  />
<glyph unicode="&#xAF;" horiz-adv-x="240" d="M0 581V608H240V581H0Z"  />
<glyph unicode="&#xB0;" horiz-adv-x="273" d="M247 566Q247 543 238 523T214 488T179 465T136 456Q113 456 93 464T58 488T35 523T26 566Q26 589 34 609T58 644T93 668T136 677Q159 677 179 668T214 644T238 609T247 566ZM217 566Q217 599 193 623T136 647Q103 647 80 623T56 566Q56 533 79 510T136 486Q169 486 193 509T217 566Z"  />
<glyph unicode="&#xB1;" horiz-adv-x="374" d="M203 322V160H171V322H29V352H171V508H203V352H345V322H203ZM29 60V90H345V60H29Z"  />
<glyph unicode="&#xB2;" horiz-adv-x="240" d="M34 421V445Q77 513 105 558T150 634T172 687T179 731Q179 763 163 782T122 801Q76 801 53 747L30 763Q46 794 67 810T122 827Q160 827 185 802T210 731Q210 708 203 685T180 631T137 555T69 447H211V421H34Z"  />
<glyph unicode="&#xB3;" horiz-adv-x="240" d="M214 528Q214 479 191 447T119 414Q84 414 61 434T25 482L49 497Q60 472 76 456T118 440Q153 440 168 463T183 529Q183 554 177 571T161 597T139 611T116 615Q109 615 102 615T92 614V641Q96 640 102 640T115 640Q142 640 160 659T179 719Q179 762 163 781T119 801Q94 801 79 787T53 749L29 764Q43 793 66 810T119 827Q157 827 183 802T209 722Q209 688 193 662T150 628Q173 623 193 596T214 528Z"  />
<glyph unicode="&#xB4;" horiz-adv-x="119" d="M24 556H0L78 700H119L24 556Z"  />
<glyph unicode="&#xB5;" horiz-adv-x="349" d="M95 -184H65V483H95V89Q95 51 110 32T152 13Q168 13 182 21T209 42T230 72T247 107V483H277V76Q277 45 284 30T311 15Q313 15 316 15T325 16L328 -10Q320 -12 311 -12Q278 -12 264 8T247 70Q232 35 208 12T152 -12Q127 -12 115 -5T95 14V-184Z"  />
<glyph unicode="&#xB6;" horiz-adv-x="449" d="M327 -100V637H229V-100H199V323Q163 323 132 336T78 373T41 428T27 495Q27 531 40 562T77 616T132 653T199 667H357V-100H327Z"  />
<glyph unicode="&#xB7;" horiz-adv-x="208" d="M137 245Q137 231 128 222T104 212Q90 212 81 221T71 245Q71 258 80 267T104 277Q118 277 127 268T137 245Z"  />
<glyph unicode="&#xB8;" horiz-adv-x="151" d="M70 -187Q47 -187 31 -179T0 -159L13 -133Q28 -147 40 -153T70 -160Q90 -160 106 -147T122 -111Q122 -92 113 -82T89 -71Q78 -71 72 -75T58 -86L37 -74L68 11H98L71 -59Q82 -49 100 -49Q120 -49 135 -65T151 -111Q151 -143 128 -165T70 -187Z"  />
<glyph unicode="&#xB9;" horiz-adv-x="190" d="M100 421V781L38 714L20 733L103 821H130V421H100Z"  />
<glyph unicode="&#xBA;" horiz-adv-x="272" d="M136 318Q110 318 92 331T61 368T44 420T38 483Q38 516 43 545T61 598T91 634T136 648Q162 648 180 635T211 598T228 546T234 483Q234 450 229 421T211 368T181 332T136 318ZM136 344Q156 344 169 356T190 387T201 432T204 483Q204 509 201 533T190 577T169 609T136 621Q116 621 103 609T83 578T72 534T68 483Q68 457 71 432T82 388T103 356T136 344Z"  />
<glyph unicode="&#xBB;" horiz-adv-x="273" d="M63 63H30L120 243L30 420H63L153 243L63 63ZM153 63H120L210 243L120 420H153L243 243L153 63Z"  />
<glyph unicode="&#xBC;" horiz-adv-x="514" d="M135 0H103L372 667H405L135 0ZM458 113V0H429V113H294V140L421 400H458V139H496V113H458ZM429 361L321 139H429V361ZM100 267V627L38 560L20 579L103 667H130V267H100Z"  />
<glyph unicode="&#xBD;" horiz-adv-x="544" d="M135 0H103L372 667H405L135 0ZM338 0V24Q381 92 409 137T454 213T476 266T483 310Q483 342 467 361T426 380Q380 380 357 326L334 342Q350 373 371 389T426 406Q464 406 489 381T514 310Q514 287 507 264T484 210T441 134T373 26H515V0H338ZM100 267V627L38 560L20 579L103 667H130V267H100Z"  />
<glyph unicode="&#xBE;" horiz-adv-x="550" d="M171 0H139L408 667H441L171 0ZM494 113V0H465V113H330V140L457 400H494V139H532V113H494ZM465 361L357 139H465V361ZM214 374Q214 325 191 293T119 260Q84 260 61 280T25 328L49 343Q60 318 76 302T118 286Q153 286 168 309T183 375Q183 400 177 417T161 443T139 457T116 461Q109 461 102 461T92 460V487Q96 486 102 486T115 486Q142 486 160 505T179 565Q179 608 163 627T119 647Q94 647 79 633T53 595L29 610Q43 639 66 656T119 673Q157 673 183 648T209 568Q209 534 193 508T150 474Q173 469 193 442T214 374Z"  />
<glyph unicode="&#xBF;" horiz-adv-x="256" d="M154 311Q182 276 182 231Q182 199 174 175T152 129T123 89T95 49T73 1T64 -59Q64 -78 70 -97T89 -132T118 -158T157 -168Q182 -168 199 -160T235 -132L254 -157Q234 -179 208 -188T157 -198Q131 -198 108 -187T68 -157T42 -113T32 -59Q32 -5 50 31T91 97T131 157T150 231Q150 249 143 265T127 291L154 311ZM147 492Q161 492 170 483T180 459Q180 446 171 437T147 427Q133 427 124 436T114 459Q114 473 123 482T147 492Z"  />
<glyph unicode="&#xC0;" horiz-adv-x="312" d="M162 723L67 867H108L186 723H162ZM267 0L235 179H77L45 0H12L137 667H175L300 0H267ZM156 620L82 209H230L156 620Z"  />
<glyph unicode="&#xC1;" horiz-adv-x="312" d="M150 723H126L204 867H245L150 723ZM267 0L235 179H77L45 0H12L137 667H175L300 0H267ZM156 620L82 209H230L156 620Z"  />
<glyph unicode="&#xC2;" horiz-adv-x="312" d="M221 723L155 839L92 723H69L137 867H173L244 723H221ZM267 0L235 179H77L45 0H12L137 667H175L300 0H267ZM156 620L82 209H230L156 620Z"  />
<glyph unicode="&#xC3;" horiz-adv-x="312" d="M194 721Q173 721 163 738T148 777T136 816T116 834Q99 834 89 809T78 727H56Q56 754 59 778T69 821T89 850T119 861Q140 861 150 844T165 805T177 766T197 748Q214 748 224 773T235 855H257Q257 828 254 804T244 762T224 732T194 721ZM267 0L235 179H77L45 0H12L137 667H175L300 0H267ZM156 620L82 209H230L156 620Z"  />
<glyph unicode="&#xC4;" horiz-adv-x="312" d="M245 765Q245 754 237 746T217 737Q206 737 198 745T189 765Q189 776 197 784T217 793Q228 793 236 785T245 765ZM123 765Q123 754 115 746T95 737Q84 737 76 745T67 765Q67 776 75 784T95 793Q106 793 114 785T123 765ZM267 0L235 179H77L45 0H12L137 667H175L300 0H267ZM156 620L82 209H230L156 620Z"  />
<glyph unicode="&#xC5;" horiz-adv-x="312" d="M157 692Q125 692 102 715T79 770Q79 802 102 825T157 848Q189 848 211 825T234 770Q234 738 212 715T157 692ZM157 716Q180 716 195 731T211 770Q211 793 196 808T157 824Q134 824 119 809T103 770Q103 747 118 732T157 716ZM267 0L235 179H77L45 0H12L137 667H175L300 0H267ZM156 620L82 209H230L156 620Z"  />
<glyph unicode="&#xC6;" horiz-adv-x="509" d="M246 0V179H110L55 0H22L233 667H456V637H278V358H449V328H278V30H456V0H246ZM246 620L119 209H246V620Z"  />
<glyph unicode="&#xC7;" horiz-adv-x="357" d="M193 -183Q170 -183 154 -175T123 -155L136 -129Q151 -143 163 -149T193 -156Q213 -156 229 -143T245 -107Q245 -88 236 -78T212 -67Q201 -67 195 -71T181 -82L160 -70L181 -11Q145 -5 121 24T81 99T60 205T53 333Q53 404 60 467T85 577T129 651T198 678Q222 678 240 670T272 647T295 614T311 575L281 563Q267 602 250 625T198 648Q168 648 148 624T114 556T94 456T88 333Q88 267 94 210T113 110T147 43T198 18Q236 18 254 48T284 123L314 111Q303 63 279 29T211 -11L194 -55Q205 -45 223 -45Q243 -45 258 -61T274 -107Q274 -139 251 -161T193 -183Z"  />
<glyph unicode="&#xC8;" horiz-adv-x="330" d="M183 723L88 867H129L207 723H183ZM72 0V667H282V637H104V358H275V328H104V30H282V0H72Z"  />
<glyph unicode="&#xC9;" horiz-adv-x="330" d="M171 723H147L225 867H266L171 723ZM72 0V667H282V637H104V358H275V328H104V30H282V0H72Z"  />
<glyph unicode="&#xCA;" horiz-adv-x="330" d="M245 723L179 839L116 723H93L161 867H197L268 723H245ZM72 0V667H282V637H104V358H275V328H104V30H282V0H72Z"  />
<glyph unicode="&#xCB;" horiz-adv-x="330" d="M267 765Q267 754 259 746T239 737Q228 737 220 745T211 765Q211 776 219 784T239 793Q250 793 258 785T267 765ZM145 765Q145 754 137 746T117 737Q106 737 98 745T89 765Q89 776 97 784T117 793Q128 793 136 785T145 765ZM72 0V667H282V637H104V358H275V328H104V30H282V0H72Z"  />
<glyph unicode="&#xCC;" horiz-adv-x="176" d="M95 723L0 867H41L119 723H95ZM72 0V667H104V0H72Z"  />
<glyph unicode="&#xCD;" horiz-adv-x="176" d="M82 723H58L136 867H177L82 723ZM72 0V667H104V0H72Z"  />
<glyph unicode="&#xCE;" horiz-adv-x="176" d="M154 723L88 839L25 723H2L70 867H106L177 723H154ZM72 0V667H104V0H72Z"  />
<glyph unicode="&#xCF;" horiz-adv-x="176" d="M182 765Q182 754 174 746T154 737Q143 737 135 745T126 765Q126 776 134 784T154 793Q165 793 173 785T182 765ZM60 765Q60 754 52 746T32 737Q21 737 13 745T4 765Q4 776 12 784T32 793Q43 793 51 785T60 765ZM72 0V667H104V0H72Z"  />
<glyph unicode="&#xD0;" horiz-adv-x="402" d="M88 0V318H26V348H88V667H181Q226 667 258 642T310 573T339 467T349 333Q349 259 340 198T310 93T258 25T181 0H88ZM120 318V30H181Q218 30 243 53T285 118T307 214T314 333Q314 396 308 451T285 547T244 613T181 637H120V348H218V318H120Z"  />
<glyph unicode="&#xD1;" horiz-adv-x="395" d="M231 721Q210 721 200 738T185 777T173 816T153 834Q136 834 126 809T115 727H93Q93 754 96 778T106 821T126 850T156 861Q177 861 187 844T202 805T214 766T234 748Q251 748 261 773T272 855H294Q294 828 291 804T281 762T261 732T231 721ZM291 0L104 575V0H72V667H104L291 98V667H323V0H291Z"  />
<glyph unicode="&#xD2;" horiz-adv-x="396" d="M204 723L109 867H150L228 723H204ZM198 -12Q157 -12 129 16T84 91T60 201T53 333Q53 402 60 465T84 575T129 650T198 678Q239 678 267 650T312 575T336 465T343 333Q343 264 336 201T312 91T267 16T198 -12ZM198 18Q229 18 250 44T284 113T302 214T308 333Q308 396 303 453T284 553T250 622T198 648Q167 648 146 623T112 554T94 453T88 333Q88 271 93 214T112 114T146 44T198 18Z"  />
<glyph unicode="&#xD3;" horiz-adv-x="396" d="M192 723H168L246 867H287L192 723ZM198 -12Q157 -12 129 16T84 91T60 201T53 333Q53 402 60 465T84 575T129 650T198 678Q239 678 267 650T312 575T336 465T343 333Q343 264 336 201T312 91T267 16T198 -12ZM198 18Q229 18 250 44T284 113T302 214T308 333Q308 396 303 453T284 553T250 622T198 648Q167 648 146 623T112 554T94 453T88 333Q88 271 93 214T112 114T146 44T198 18Z"  />
<glyph unicode="&#xD4;" horiz-adv-x="396" d="M263 723L197 839L134 723H111L179 867H215L286 723H263ZM198 -12Q157 -12 129 16T84 91T60 201T53 333Q53 402 60 465T84 575T129 650T198 678Q239 678 267 650T312 575T336 465T343 333Q343 264 336 201T312 91T267 16T198 -12ZM198 18Q229 18 250 44T284 113T302 214T308 333Q308 396 303 453T284 553T250 622T198 648Q167 648 146 623T112 554T94 453T88 333Q88 271 93 214T112 114T146 44T198 18Z"  />
<glyph unicode="&#xD5;" horiz-adv-x="396" d="M236 721Q215 721 205 738T190 777T178 816T158 834Q141 834 131 809T120 727H98Q98 754 101 778T111 821T131 850T161 861Q182 861 192 844T207 805T219 766T239 748Q256 748 266 773T277 855H299Q299 828 296 804T286 762T266 732T236 721ZM198 -12Q157 -12 129 16T84 91T60 201T53 333Q53 402 60 465T84 575T129 650T198 678Q239 678 267 650T312 575T336 465T343 333Q343 264 336 201T312 91T267 16T198 -12ZM198 18Q229 18 250 44T284 113T302 214T308 333Q308 396 303 453T284 553T250 622T198 648Q167 648 146 623T112 554T94 453T88 333Q88 271 93 214T112 114T146 44T198 18Z"  />
<glyph unicode="&#xD6;" horiz-adv-x="396" d="M286 765Q286 754 278 746T258 737Q247 737 239 745T230 765Q230 776 238 784T258 793Q269 793 277 785T286 765ZM164 765Q164 754 156 746T136 737Q125 737 117 745T108 765Q108 776 116 784T136 793Q147 793 155 785T164 765ZM198 -12Q157 -12 129 16T84 91T60 201T53 333Q53 402 60 465T84 575T129 650T198 678Q239 678 267 650T312 575T336 465T343 333Q343 264 336 201T312 91T267 16T198 -12ZM198 18Q229 18 250 44T284 113T302 214T308 333Q308 396 303 453T284 553T250 622T198 648Q167 648 146 623T112 554T94 453T88 333Q88 271 93 214T112 114T146 44T198 18Z"  />
<glyph unicode="&#xD7;" horiz-adv-x="374" d="M187 313L75 200L53 222L166 334L53 446L75 468L187 355L299 468L321 446L208 334L321 222L299 200L187 313Z"  />
<glyph unicode="&#xD8;" horiz-adv-x="396" d="M198 -12Q169 -12 148 1T109 40L95 0H62L89 77Q69 125 61 191T53 333Q53 402 60 465T84 575T129 650T198 678Q227 678 248 665T286 626L301 667H334L306 589Q326 541 334 475T343 333Q343 264 336 201T312 91T267 16T198 -12ZM198 18Q229 18 250 44T284 113T302 214T308 333Q308 390 304 443T288 538L124 80Q137 51 155 35T198 18ZM88 333Q88 276 92 224T108 128L272 586Q259 615 241 631T198 648Q167 648 146 623T112 554T94 453T88 333Z"  />
<glyph unicode="&#xD9;" horiz-adv-x="396" d="M204 723L109 867H150L228 723H204ZM198 -12Q138 -12 105 27T72 154V667H104V154Q104 78 130 48T198 18Q240 18 266 48T292 154V667H324V154Q324 66 291 27T198 -12Z"  />
<glyph unicode="&#xDA;" horiz-adv-x="396" d="M192 723H168L246 867H287L192 723ZM198 -12Q138 -12 105 27T72 154V667H104V154Q104 78 130 48T198 18Q240 18 266 48T292 154V667H324V154Q324 66 291 27T198 -12Z"  />
<glyph unicode="&#xDB;" horiz-adv-x="396" d="M262 723L196 839L133 723H110L178 867H214L285 723H262ZM198 -12Q138 -12 105 27T72 154V667H104V154Q104 78 130 48T198 18Q240 18 266 48T292 154V667H324V154Q324 66 291 27T198 -12Z"  />
<glyph unicode="&#xDC;" horiz-adv-x="396" d="M286 765Q286 754 278 746T258 737Q247 737 239 745T230 765Q230 776 238 784T258 793Q269 793 277 785T286 765ZM164 765Q164 754 156 746T136 737Q125 737 117 745T108 765Q108 776 116 784T136 793Q147 793 155 785T164 765ZM198 -12Q138 -12 105 27T72 154V667H104V154Q104 78 130 48T198 18Q240 18 266 48T292 154V667H324V154Q324 66 291 27T198 -12Z"  />
<glyph unicode="&#xDD;" horiz-adv-x="322" d="M155 723H131L209 867H250L155 723ZM145 0V289L2 667H38L161 328L286 667H320L177 289V0H145Z"  />
<glyph unicode="&#xDE;" horiz-adv-x="341" d="M72 0V667H104V538H172Q207 538 232 523T274 481T299 421T307 348Q307 310 299 276T275 216T233 175T172 160H104V0H72ZM171 190Q224 190 248 234T272 348Q272 382 266 411T248 462T216 496T171 508H104V190H171Z"  />
<glyph unicode="&#xDF;" horiz-adv-x="396" d="M379 105Q379 80 371 59T348 22T313 -3T270 -12Q233 -12 208 3T161 47L183 71Q189 63 196 54T214 36T239 21T270 15Q284 15 298 21T323 39T342 67T349 105Q349 138 336 161T304 204T262 239T220 276T188 321T175 384Q175 416 191 438T226 479T262 519T278 570Q278 602 255 626T194 650Q158 650 133 625T108 544V0H78V544Q78 604 110 640T194 677Q246 677 276 646T306 570Q306 545 299 527T280 495T256 468T231 444T213 417T205 384Q205 352 218 330T250 290T292 254T334 217T366 170T379 105Z"  />
<glyph unicode="&#xE0;" horiz-adv-x="342" d="M247 0V53Q230 16 206 2T159 -12Q103 -12 72 33T41 149Q41 219 72 264T159 310Q182 310 206 297T247 247V348Q247 407 231 437T170 468Q145 468 123 457T77 414L59 437Q88 468 114 481T170 495Q231 495 254 459T277 349V0H247ZM159 15Q185 15 209 30T247 88V208Q233 250 209 266T159 283Q137 283 121 272T95 242T79 199T74 149Q74 123 79 99T94 56T121 26T159 15ZM176 556L81 700H122L200 556H176Z"  />
<glyph unicode="&#xE1;" horiz-adv-x="342" d="M247 0V53Q230 16 206 2T159 -12Q103 -12 72 33T41 149Q41 219 72 264T159 310Q182 310 206 297T247 247V348Q247 407 231 437T170 468Q145 468 123 457T77 414L59 437Q88 468 114 481T170 495Q231 495 254 459T277 349V0H247ZM159 15Q185 15 209 30T247 88V208Q233 250 209 266T159 283Q137 283 121 272T95 242T79 199T74 149Q74 123 79 99T94 56T121 26T159 15ZM164 556H140L218 700H259L164 556Z"  />
<glyph unicode="&#xE2;" horiz-adv-x="342" d="M247 0V53Q230 16 206 2T159 -12Q103 -12 72 33T41 149Q41 219 72 264T159 310Q182 310 206 297T247 247V348Q247 407 231 437T170 468Q145 468 123 457T77 414L59 437Q88 468 114 481T170 495Q231 495 254 459T277 349V0H247ZM159 15Q185 15 209 30T247 88V208Q233 250 209 266T159 283Q137 283 121 272T95 242T79 199T74 149Q74 123 79 99T94 56T121 26T159 15ZM237 556L171 672L108 556H85L153 700H189L260 556H237Z"  />
<glyph unicode="&#xE3;" horiz-adv-x="342" d="M247 0V53Q230 16 206 2T159 -12Q103 -12 72 33T41 149Q41 219 72 264T159 310Q182 310 206 297T247 247V348Q247 407 231 437T170 468Q145 468 123 457T77 414L59 437Q88 468 114 481T170 495Q231 495 254 459T277 349V0H247ZM159 15Q185 15 209 30T247 88V208Q233 250 209 266T159 283Q137 283 121 272T95 242T79 199T74 149Q74 123 79 99T94 56T121 26T159 15ZM210 554Q189 554 179 571T164 610T152 649T132 667Q115 667 105 642T94 560H72Q72 587 75 611T85 654T105 683T135 694Q156 694 166 677T181 638T193 599T213 581Q230 581 240 606T251 688H273Q273 661 270 637T260 595T240 565T210 554Z"  />
<glyph unicode="&#xE4;" horiz-adv-x="342" d="M247 0V53Q230 16 206 2T159 -12Q103 -12 72 33T41 149Q41 219 72 264T159 310Q182 310 206 297T247 247V348Q247 407 231 437T170 468Q145 468 123 457T77 414L59 437Q88 468 114 481T170 495Q231 495 254 459T277 349V0H247ZM159 15Q185 15 209 30T247 88V208Q233 250 209 266T159 283Q137 283 121 272T95 242T79 199T74 149Q74 123 79 99T94 56T121 26T159 15ZM259 598Q259 587 251 579T231 570Q220 570 212 578T203 598Q203 609 211 617T231 626Q242 626 250 618T259 598ZM137 598Q137 587 129 579T109 570Q98 570 90 578T81 598Q81 609 89 617T109 626Q120 626 128 618T137 598Z"  />
<glyph unicode="&#xE5;" horiz-adv-x="342" d="M247 0V53Q230 16 206 2T159 -12Q103 -12 72 33T41 149Q41 219 72 264T159 310Q182 310 206 297T247 247V348Q247 407 231 437T170 468Q145 468 123 457T77 414L59 437Q88 468 114 481T170 495Q231 495 254 459T277 349V0H247ZM159 15Q185 15 209 30T247 88V208Q233 250 209 266T159 283Q137 283 121 272T95 242T79 199T74 149Q74 123 79 99T94 56T121 26T159 15ZM171 553Q139 553 116 576T93 631Q93 663 116 686T171 709Q203 709 225 686T248 631Q248 599 226 576T171 553ZM171 577Q194 577 209 592T225 631Q225 654 210 669T171 685Q148 685 133 670T117 631Q117 608 132 593T171 577Z"  />
<glyph unicode="&#xE6;" horiz-adv-x="543" d="M284 232Q284 183 291 143T312 75T346 31T393 15Q414 15 434 32T469 83L497 69Q479 33 453 11T390 -12Q363 -12 344 -3T311 21T287 57T270 98Q259 51 234 20T163 -12Q105 -12 73 33T41 148Q41 183 49 212T72 264T111 298T163 310Q186 310 211 297T254 247V348Q254 407 237 437T174 468Q148 468 125 457T77 414L59 437Q88 468 114 481T170 495Q219 495 245 472T276 396Q286 435 310 465T373 495Q410 495 434 475T474 419T495 338T502 242V232H284ZM469 259Q469 294 465 331T451 398T422 448T376 468Q348 468 331 447T303 395T288 327T284 259H469ZM254 208Q239 250 215 266T162 283Q121 283 98 248T74 149Q74 85 97 50T162 15Q204 15 229 58T254 184V208Z"  />
<glyph unicode="&#xE7;" horiz-adv-x="294" d="M180 -185Q157 -185 141 -177T110 -157L123 -131Q138 -145 150 -151T180 -158Q200 -158 216 -145T232 -109Q232 -90 223 -80T199 -69Q188 -69 182 -73T168 -84L147 -72L169 -11Q137 -7 114 14T76 70T54 148T47 242Q47 294 55 340T79 420T122 475T183 495Q213 495 231 483T267 450L246 429Q230 450 215 459T182 468Q152 468 133 449T102 397T85 325T80 242Q80 200 85 160T101 87T132 35T182 15Q199 15 214 23T246 54L267 33Q252 13 237 3T198 -11L181 -57Q192 -47 210 -47Q230 -47 245 -63T261 -109Q261 -141 238 -163T180 -185Z"  />
<glyph unicode="&#xE8;" horiz-adv-x="346" d="M193 -12Q154 -12 126 7T81 61T55 142T47 242Q47 294 54 340T76 421T116 475T176 495Q213 495 237 475T277 419T298 338T305 242V232H80Q80 183 87 143T108 75T144 31T193 15Q215 15 236 32T272 83L300 69Q282 33 256 11T193 -12ZM272 259Q272 294 268 331T253 398T223 448T176 468Q147 468 129 447T99 395T84 327T80 259H272ZM182 556L87 700H128L206 556H182Z"  />
<glyph unicode="&#xE9;" horiz-adv-x="346" d="M193 -12Q154 -12 126 7T81 61T55 142T47 242Q47 294 54 340T76 421T116 475T176 495Q213 495 237 475T277 419T298 338T305 242V232H80Q80 183 87 143T108 75T144 31T193 15Q215 15 236 32T272 83L300 69Q282 33 256 11T193 -12ZM272 259Q272 294 268 331T253 398T223 448T176 468Q147 468 129 447T99 395T84 327T80 259H272ZM170 556H146L224 700H265L170 556Z"  />
<glyph unicode="&#xEA;" horiz-adv-x="346" d="M193 -12Q154 -12 126 7T81 61T55 142T47 242Q47 294 54 340T76 421T116 475T176 495Q213 495 237 475T277 419T298 338T305 242V232H80Q80 183 87 143T108 75T144 31T193 15Q215 15 236 32T272 83L300 69Q282 33 256 11T193 -12ZM272 259Q272 294 268 331T253 398T223 448T176 468Q147 468 129 447T99 395T84 327T80 259H272ZM242 556L176 672L113 556H90L158 700H194L265 556H242Z"  />
<glyph unicode="&#xEB;" horiz-adv-x="346" d="M193 -12Q154 -12 126 7T81 61T55 142T47 242Q47 294 54 340T76 421T116 475T176 495Q213 495 237 475T277 419T298 338T305 242V232H80Q80 183 87 143T108 75T144 31T193 15Q215 15 236 32T272 83L300 69Q282 33 256 11T193 -12ZM272 259Q272 294 268 331T253 398T223 448T176 468Q147 468 129 447T99 395T84 327T80 259H272ZM264 598Q264 587 256 579T236 570Q225 570 217 578T208 598Q208 609 216 617T236 626Q247 626 255 618T264 598ZM142 598Q142 587 134 579T114 570Q103 570 95 578T86 598Q86 609 94 617T114 626Q125 626 133 618T142 598Z"  />
<glyph unicode="&#xEC;" horiz-adv-x="160" d="M88 556L-7 700H34L112 556H88ZM65 0V483H95V0H65Z"  />
<glyph unicode="&#xED;" horiz-adv-x="160" d="M74 556H50L128 700H169L74 556ZM65 0V483H95V0H65Z"  />
<glyph unicode="&#xEE;" horiz-adv-x="160" d="M147 556L81 672L18 556H-5L63 700H99L170 556H147ZM65 0V483H95V0H65Z"  />
<glyph unicode="&#xEF;" horiz-adv-x="160" d="M171 598Q171 587 163 579T143 570Q132 570 124 578T115 598Q115 609 123 617T143 626Q154 626 162 618T171 598ZM49 598Q49 587 41 579T21 570Q10 570 2 578T-7 598Q-7 609 1 617T21 626Q32 626 40 618T49 598ZM65 0V483H95V0H65Z"  />
<glyph unicode="&#xF0;" horiz-adv-x="352" d="M91 551L192 596Q183 614 174 631T156 662L185 678Q204 645 221 609L294 642L305 618L232 585Q267 503 286 416T305 242Q305 192 299 147T277 66T238 9T176 -12Q140 -12 115 9T75 65T54 146T47 242Q47 291 53 337T75 418T115 474T176 495Q226 495 251 440Q243 469 231 503T203 571L103 526L91 551ZM176 15Q205 15 224 35T253 88T268 160T272 242Q272 282 268 322T254 395T224 447T176 468Q147 468 129 448T99 395T84 323T80 242Q80 201 84 161T99 88T128 36T176 15Z"  />
<glyph unicode="&#xF1;" horiz-adv-x="342" d="M247 0V394Q247 468 194 468Q178 468 163 460T135 439T112 409T95 374V0H65V483H95V411Q112 446 139 470T198 495Q240 495 258 471T277 394V0H247ZM211 554Q190 554 180 571T165 610T153 649T133 667Q116 667 106 642T95 560H73Q73 587 76 611T86 654T106 683T136 694Q157 694 167 677T182 638T194 599T214 581Q231 581 241 606T252 688H274Q274 661 271 637T261 595T241 565T211 554Z"  />
<glyph unicode="&#xF2;" horiz-adv-x="352" d="M176 -12Q140 -12 115 9T75 65T54 146T47 242Q47 291 53 337T75 418T115 474T176 495Q213 495 237 474T277 418T298 337T305 242Q305 192 299 147T277 66T238 9T176 -12ZM176 15Q205 15 224 35T253 88T268 160T272 242Q272 282 268 322T254 395T224 447T176 468Q147 468 129 448T99 395T84 323T80 242Q80 201 84 161T99 88T128 36T176 15ZM183 556L88 700H129L207 556H183Z"  />
<glyph unicode="&#xF3;" horiz-adv-x="352" d="M176 -12Q140 -12 115 9T75 65T54 146T47 242Q47 291 53 337T75 418T115 474T176 495Q213 495 237 474T277 418T298 337T305 242Q305 192 299 147T277 66T238 9T176 -12ZM176 15Q205 15 224 35T253 88T268 160T272 242Q272 282 268 322T254 395T224 447T176 468Q147 468 129 448T99 395T84 323T80 242Q80 201 84 161T99 88T128 36T176 15ZM170 556H146L224 700H265L170 556Z"  />
<glyph unicode="&#xF4;" horiz-adv-x="352" d="M176 -12Q140 -12 115 9T75 65T54 146T47 242Q47 291 53 337T75 418T115 474T176 495Q213 495 237 474T277 418T298 337T305 242Q305 192 299 147T277 66T238 9T176 -12ZM176 15Q205 15 224 35T253 88T268 160T272 242Q272 282 268 322T254 395T224 447T176 468Q147 468 129 448T99 395T84 323T80 242Q80 201 84 161T99 88T128 36T176 15ZM241 556L175 672L112 556H89L157 700H193L264 556H241Z"  />
<glyph unicode="&#xF5;" horiz-adv-x="352" d="M176 -12Q140 -12 115 9T75 65T54 146T47 242Q47 291 53 337T75 418T115 474T176 495Q213 495 237 474T277 418T298 337T305 242Q305 192 299 147T277 66T238 9T176 -12ZM176 15Q205 15 224 35T253 88T268 160T272 242Q272 282 268 322T254 395T224 447T176 468Q147 468 129 448T99 395T84 323T80 242Q80 201 84 161T99 88T128 36T176 15ZM214 554Q193 554 183 571T168 610T156 649T136 667Q119 667 109 642T98 560H76Q76 587 79 611T89 654T109 683T139 694Q160 694 170 677T185 638T197 599T217 581Q234 581 244 606T255 688H277Q277 661 274 637T264 595T244 565T214 554Z"  />
<glyph unicode="&#xF6;" horiz-adv-x="352" d="M176 -12Q140 -12 115 9T75 65T54 146T47 242Q47 291 53 337T75 418T115 474T176 495Q213 495 237 474T277 418T298 337T305 242Q305 192 299 147T277 66T238 9T176 -12ZM176 15Q205 15 224 35T253 88T268 160T272 242Q272 282 268 322T254 395T224 447T176 468Q147 468 129 448T99 395T84 323T80 242Q80 201 84 161T99 88T128 36T176 15ZM266 598Q266 587 258 579T238 570Q227 570 219 578T210 598Q210 609 218 617T238 626Q249 626 257 618T266 598ZM144 598Q144 587 136 579T116 570Q105 570 97 578T88 598Q88 609 96 617T116 626Q127 626 135 618T144 598Z"  />
<glyph unicode="&#xF7;" horiz-adv-x="374" d="M222 475Q222 461 213 452T189 442Q175 442 166 451T156 475Q156 489 165 498T189 508Q203 508 212 499T222 475ZM29 322V352H345V322H29ZM222 193Q222 179 213 170T189 160Q175 160 166 169T156 193Q156 207 165 216T189 226Q203 226 212 217T222 193Z"  />
<glyph unicode="&#xF8;" horiz-adv-x="352" d="M57 0L80 54Q62 90 55 139T47 242Q47 291 53 337T75 418T115 474T176 495Q224 495 254 457L266 483H295L272 429Q290 394 297 345T305 242Q305 192 299 147T277 66T238 9T176 -12Q150 -12 131 -2T97 27L86 0H57ZM176 15Q205 15 224 35T253 88T268 160T272 242Q272 280 269 319T255 390L111 59Q122 39 138 27T176 15ZM80 242Q80 203 83 164T97 93L240 424Q229 444 214 456T176 468Q147 468 129 448T99 395T84 323T80 242Z"  />
<glyph unicode="&#xF9;" horiz-adv-x="342" d="M247 0V70Q230 35 205 12T144 -12Q102 -12 84 11T65 89V483H95V89Q95 15 148 15Q164 15 179 22T207 43T230 72T247 107V483H277V0H247ZM177 556L82 700H123L201 556H177Z"  />
<glyph unicode="&#xFA;" horiz-adv-x="342" d="M247 0V70Q230 35 205 12T144 -12Q102 -12 84 11T65 89V483H95V89Q95 15 148 15Q164 15 179 22T207 43T230 72T247 107V483H277V0H247ZM165 556H141L219 700H260L165 556Z"  />
<glyph unicode="&#xFB;" horiz-adv-x="342" d="M247 0V70Q230 35 205 12T144 -12Q102 -12 84 11T65 89V483H95V89Q95 15 148 15Q164 15 179 22T207 43T230 72T247 107V483H277V0H247ZM237 556L171 672L108 556H85L153 700H189L260 556H237Z"  />
<glyph unicode="&#xFC;" horiz-adv-x="342" d="M247 0V70Q230 35 205 12T144 -12Q102 -12 84 11T65 89V483H95V89Q95 15 148 15Q164 15 179 22T207 43T230 72T247 107V483H277V0H247ZM262 598Q262 587 254 579T234 570Q223 570 215 578T206 598Q206 609 214 617T234 626Q245 626 253 618T262 598ZM140 598Q140 587 132 579T112 570Q101 570 93 578T84 598Q84 609 92 617T112 626Q123 626 131 618T140 598Z"  />
<glyph unicode="&#xFD;" horiz-adv-x="279" d="M34 -162Q39 -166 46 -167T58 -169Q77 -169 85 -157T102 -115L125 -18L16 483H49L139 40L230 483H263L126 -123Q116 -165 100 -180T58 -196Q39 -196 27 -189L34 -162ZM133 556H109L187 700H228L133 556Z"  />
<glyph unicode="&#xFE;" horiz-adv-x="351" d="M183 -12Q158 -12 134 6T95 67V-184H65V667H95V418Q126 495 183 495Q216 495 239 476T276 422T297 342T304 242Q304 189 298 143T277 63T239 8T183 -12ZM183 15Q209 15 226 34T253 85T267 157T271 242Q271 285 267 326T253 398T226 449T183 468Q169 468 155 460T129 437T108 405T95 368V117Q99 98 108 80T129 47T155 24T183 15Z"  />
<glyph unicode="&#xFF;" horiz-adv-x="279" d="M34 -162Q39 -166 46 -167T58 -169Q77 -169 85 -157T102 -115L125 -18L16 483H49L139 40L230 483H263L126 -123Q116 -165 100 -180T58 -196Q39 -196 27 -189L34 -162ZM228 598Q228 587 220 579T200 570Q189 570 181 578T172 598Q172 609 180 617T200 626Q211 626 219 618T228 598ZM106 598Q106 587 98 579T78 570Q67 570 59 578T50 598Q50 609 58 617T78 626Q89 626 97 618T106 598Z"  />
<glyph unicode="&#x110;" horiz-adv-x="402" d="M88 0V318H26V348H88V667H181Q226 667 258 642T310 573T339 467T349 333Q349 259 340 198T310 93T258 25T181 0H88ZM120 318V30H181Q218 30 243 53T285 118T307 214T314 333Q314 396 308 451T285 547T244 613T181 637H120V348H218V318H120Z"  />
<glyph unicode="&#x131;" horiz-adv-x="160" d="M65 0V483H95V0H65Z"  />
<glyph unicode="&#x152;" horiz-adv-x="561" d="M298 0V80Q287 50 274 32T248 5T221 -8T198 -12Q156 -12 129 16T84 91T60 201T53 333Q53 402 60 464T84 574T128 649T198 677Q208 677 221 674T247 662T274 634T298 587V667H508V637H330V358H501V328H330V30H508V0H298ZM298 500Q286 568 261 607T198 647Q166 647 145 622T112 553T94 453T88 333Q88 271 93 214T111 114T145 44T198 18Q236 18 261 58T298 167V500Z"  />
<glyph unicode="&#x153;" horiz-adv-x="571" d="M305 232Q305 183 312 143T333 75T369 31T418 15Q440 15 461 32T497 83L525 69Q507 33 481 11T418 -12Q363 -12 334 22T290 117Q277 57 250 23T176 -12Q140 -12 115 9T75 65T54 146T47 242Q47 291 53 337T75 418T115 474T176 495Q222 495 248 462T289 371Q302 431 330 463T401 495Q438 495 462 475T502 419T523 338T530 242V232H305ZM497 259Q497 294 493 331T478 398T448 448T401 468Q372 468 354 447T324 395T309 327T305 259H497ZM272 242Q272 282 268 322T254 395T224 447T176 468Q147 468 129 448T99 395T84 323T80 242Q80 202 84 162T99 88T128 35T176 14Q205 14 224 34T253 88T268 161T272 242Z"  />
<glyph unicode="&#x160;" horiz-adv-x="319" d="M153 723L82 867H105L171 751L234 867H257L189 723H153ZM145 -12Q110 -12 80 3T27 45L51 71Q67 47 93 33T145 18Q166 18 184 27T217 53T240 93T248 147Q248 192 233 225T196 286T147 338T98 391T60 452T45 532Q45 566 55 593T83 639T123 668T170 678Q229 678 267 637L248 612Q216 648 170 648Q134 648 106 617T77 532Q77 494 92 464T129 408T178 356T227 300T265 233T280 147Q280 113 271 84T243 34T200 0T145 -12Z"  />
<glyph unicode="&#x161;" horiz-adv-x="278" d="M137 -12Q103 -12 77 1T28 47L50 68Q67 42 87 29T137 15Q168 15 192 39T216 105Q216 138 203 162T171 205T129 242T87 280T55 327T42 390Q42 437 73 466T147 495Q204 495 240 444L220 424Q204 449 186 458T147 468Q112 468 92 445T72 390Q72 358 85 336T117 294T159 258T201 219T233 170T246 105Q246 78 237 57T213 20T178 -4T137 -12ZM128 556L57 700H80L146 584L209 700H232L164 556H128Z"  />
<glyph unicode="&#x178;" horiz-adv-x="322" d="M254 765Q254 754 246 746T226 737Q215 737 207 745T198 765Q198 776 206 784T226 793Q237 793 245 785T254 765ZM132 765Q132 754 124 746T104 737Q93 737 85 745T76 765Q76 776 84 784T104 793Q115 793 123 785T132 765ZM145 0V289L2 667H38L161 328L286 667H320L177 289V0H145Z"  />
<glyph unicode="&#x17D;" horiz-adv-x="309" d="M139 723L68 867H91L157 751L220 867H243L175 723H139ZM36 0V31L233 637H36V667H266V637L68 30H273V0H36Z"  />
<glyph unicode="&#x17E;" horiz-adv-x="275" d="M41 0V27L199 456H41V483H230V456L74 27H234V0H41ZM119 556L48 700H71L137 584L200 700H223L155 556H119Z"  />
<glyph unicode="&#x192;" horiz-adv-x="335" d="M30 -161L124 267H74V297H131L196 590Q204 628 230 652T294 677Q309 677 322 671T345 651L321 631Q312 647 290 647Q264 647 249 631T228 587L164 297H264V267H157L62 -161H30Z"  />
<glyph unicode="&#x2C6;" horiz-adv-x="175" d="M152 556L86 672L23 556H0L68 700H104L175 556H152Z"  />
<glyph unicode="&#x2C7;" horiz-adv-x="175" d="M71 556L0 700H23L89 584L152 700H175L107 556H71Z"  />
<glyph unicode="&#x2DA;" horiz-adv-x="155" d="M78 553Q46 553 23 576T0 631Q0 663 23 686T78 709Q110 709 132 686T155 631Q155 599 133 576T78 553ZM78 577Q101 577 116 592T132 631Q132 654 117 669T78 685Q55 685 40 670T24 631Q24 608 39 593T78 577Z"  />
<glyph unicode="&#x2DC;" horiz-adv-x="201" d="M138 554Q117 554 107 571T92 610T80 649T60 667Q43 667 33 642T22 560H0Q0 587 3 611T13 654T33 683T63 694Q84 694 94 677T109 638T121 599T141 581Q158 581 168 606T179 688H201Q201 661 198 637T188 595T168 565T138 554Z"  />
<glyph unicode="&#x2013;" horiz-adv-x="460" d="M30 227V257H430V227H30Z"  />
<glyph unicode="&#x2014;" horiz-adv-x="640" d="M30 227V257H610V227H30Z"  />
<glyph unicode="&#x2018;" horiz-adv-x="208" d="M69 556Q69 594 88 627T131 677L153 659Q129 641 115 616T100 567H103Q104 567 105 567T107 568Q121 568 130 559T139 535Q139 522 130 513T107 503Q91 503 80 516T69 556Z"  />
<glyph unicode="&#x2019;" horiz-adv-x="208" d="M141 624Q141 586 122 553T79 503L57 521Q81 539 95 564T110 613Q108 612 107 612H103Q89 612 80 621T71 645Q71 658 80 667T103 677Q119 677 130 664T141 624Z"  />
<glyph unicode="&#x201A;" horiz-adv-x="208" d="M141 3Q141 -35 122 -68T79 -118L57 -100Q81 -82 95 -57T110 -8Q108 -9 107 -9H103Q89 -9 80 0T71 24Q71 37 80 46T103 56Q119 56 130 43T141 3Z"  />
<glyph unicode="&#x201C;" horiz-adv-x="331" d="M67 556Q67 594 86 627T129 677L151 659Q127 641 113 616T98 567H101Q102 567 103 567T105 568Q119 568 128 559T137 535Q137 522 128 513T105 503Q89 503 78 516T67 556ZM190 556Q190 594 209 627T252 677L274 659Q250 641 236 616T221 567H224Q225 567 226 567T228 568Q242 568 251 559T260 535Q260 522 251 513T228 503Q212 503 201 516T190 556Z"  />
<glyph unicode="&#x201D;" horiz-adv-x="331" d="M264 624Q264 586 245 553T202 503L180 521Q204 539 218 564T233 613Q231 612 230 612H226Q212 612 203 621T194 645Q194 658 203 667T226 677Q242 677 253 664T264 624ZM141 624Q141 586 122 553T79 503L57 521Q81 539 95 564T110 613Q108 612 107 612H103Q89 612 80 621T71 645Q71 658 80 667T103 677Q119 677 130 664T141 624Z"  />
<glyph unicode="&#x201E;" horiz-adv-x="331" d="M141 3Q141 -35 122 -68T79 -118L57 -100Q81 -82 95 -57T110 -8Q108 -9 107 -9H103Q89 -9 80 0T71 24Q71 37 80 46T103 56Q119 56 130 43T141 3ZM264 3Q264 -35 245 -68T202 -118L180 -100Q204 -82 218 -57T233 -8Q231 -9 230 -9H226Q212 -9 203 0T194 24Q194 37 203 46T226 56Q242 56 253 43T264 3Z"  />
<glyph unicode="&#x2020;" horiz-adv-x="251" d="M137 543L141 327H110L114 543L25 539V566L114 563L110 677H141L137 563L226 566V539L137 543Z"  />
<glyph unicode="&#x2021;" horiz-adv-x="251" d="M226 539L137 543V314L226 318V291L137 294L141 180H110L114 294L25 291V318L114 314V543L25 539V566L114 563L110 677H141L137 563L226 566V539Z"  />
<glyph unicode="&#x2022;" horiz-adv-x="358" d="M278 242Q278 222 271 205T250 174T218 153T180 145Q160 145 142 152T111 173T90 204T82 242Q82 283 110 311T180 340Q221 340 249 312T278 242Z"  />
<glyph unicode="&#x2026;" horiz-adv-x="624" d="M137 24Q137 10 128 1T104 -9Q90 -9 81 0T71 24Q71 37 80 46T104 56Q118 56 127 47T137 24ZM345 24Q345 10 336 1T312 -9Q298 -9 289 0T279 24Q279 37 288 46T312 56Q326 56 335 47T345 24ZM553 24Q553 10 544 1T520 -9Q506 -9 497 0T487 24Q487 37 496 46T520 56Q534 56 543 47T553 24Z"  />
<glyph unicode="&#x2030;" horiz-adv-x="817" d="M262 513Q262 478 254 449T232 397T196 363T149 351Q123 351 102 363T67 397T44 448T36 513Q36 548 44 578T66 630T102 664T149 677Q175 677 196 665T231 630T254 578T262 513ZM159 0H127L396 667H429L159 0ZM519 150Q519 115 511 86T489 34T453 0T406 -12Q380 -12 359 0T324 34T301 85T293 150Q293 185 301 215T323 267T359 301T406 314Q432 314 453 302T488 267T511 215T519 150ZM229 513Q229 541 224 565T209 609T183 639T149 650Q130 650 115 639T90 609T75 566T69 513Q69 486 74 462T90 419T115 389T149 378Q168 378 183 389T208 418T224 461T229 513ZM486 150Q486 178 481 202T466 246T440 276T406 287Q386 287 372 276T347 246T331 203T326 150Q326 123 331 99T346 56T371 26T406 15Q425 15 440 26T465 55T481 98T486 150ZM781 150Q781 115 773 86T751 34T715 0T668 -12Q642 -12 621 0T586 34T563 85T555 150Q555 185 563 215T585 267T621 301T668 314Q694 314 715 302T750 267T773 215T781 150ZM748 150Q748 178 743 202T728 246T702 276T668 287Q648 287 634 276T609 246T593 203T588 150Q588 123 593 99T608 56T633 26T668 15Q687 15 702 26T727 55T743 98T748 150Z"  />
<glyph unicode="&#x2039;" horiz-adv-x="183" d="M120 63L30 243L120 420H153L63 243L153 63H120Z"  />
<glyph unicode="&#x203A;" horiz-adv-x="183" d="M63 63H30L120 243L30 420H63L153 243L63 63Z"  />
<glyph unicode="&#x2044;" horiz-adv-x="100" d="M-69 0H-101L168 667H201L-69 0Z"  />
<glyph unicode="&#x20AC;" horiz-adv-x="366" d="M207 -12Q173 -12 148 7T106 61T79 143T65 247H18V277H63Q62 291 62 305T62 333Q62 347 62 362T63 391H18V421H65Q69 476 78 523T105 604T148 658T207 678Q231 678 249 670T281 647T304 614T320 575L290 563Q276 602 259 625T207 648Q183 648 165 631T133 584T111 512T100 421H237V391H98Q97 377 97 363T97 333Q97 319 97 305T98 277H237V247H100Q103 197 111 155T132 83T163 35T207 18Q245 18 263 48T293 123L323 111Q317 85 308 63T284 24T251 -2T207 -12Z"  />
<glyph unicode="&#x2122;" horiz-adv-x="374" d="M311 447V629L256 447H248L193 629V447H165V667H208L252 510L296 667H339V447H311ZM87 641V447H59V641H17V667H129V641H87Z"  />
<glyph unicode="&#xF656;" horiz-adv-x="190" d="M100 0V360L38 293L20 312L103 400H130V0H100Z"  />
<glyph unicode="&#xF657;" horiz-adv-x="240" d="M34 0V24Q77 92 105 137T150 213T172 266T179 310Q179 342 163 361T122 380Q76 380 53 326L30 342Q46 373 67 389T122 406Q160 406 185 381T210 310Q210 287 203 264T180 210T137 134T69 26H211V0H34Z"  />
<glyph unicode="&#xF658;" horiz-adv-x="240" d="M214 107Q214 58 191 26T119 -7Q84 -7 61 13T25 61L49 76Q60 51 76 35T118 19Q153 19 168 42T183 108Q183 133 177 150T161 176T139 190T116 194Q109 194 102 194T92 193V220Q96 219 102 219T115 219Q142 219 160 238T179 298Q179 341 163 360T119 380Q94 380 79 366T53 328L29 343Q43 372 66 389T119 406Q157 406 183 381T209 301Q209 267 193 241T150 207Q173 202 193 175T214 107Z"  />
<glyph unicode="&#xF659;" horiz-adv-x="240" d="M184 113V0H155V113H20V140L147 400H184V139H222V113H184ZM155 361L47 139H155V361Z"  />


</font>
</defs>
</svg>
